<svg xmlns="http://www.w3.org/2000/svg"  viewBox="0 0 64 64" width="64px" height="64px" baseProfile="basic"><radialGradient id="SGc3VMLWrXclrqp9cj466a" cx="34.625" cy="244.235" r="23.206" gradientTransform="matrix(1 0 0 -1 0 276.11)" gradientUnits="userSpaceOnUse"><stop offset="0" stop-color="#f4e9c3"/><stop offset=".219" stop-color="#f8eecd"/><stop offset=".644" stop-color="#fdf4dc"/><stop offset="1" stop-color="#fff6e1"/></radialGradient><path fill="url(#SGc3VMLWrXclrqp9cj466a)" d="M14.5,26H10c-1.657,0-3,1.343-3,3v5H4v6h9.5c1.381,0,2.5,1.119,2.5,2.5l0,0	c0,1.381-1.119,2.5-2.5,2.5h-0.25c-2.209,0-4,1.791-4,4l0,0c0,2.209,1.791,4,4,4H19c1.105,0,2,0.895,2,2l0,0c0,1.105-0.895,2-2,2	H7.5C5.567,57,4,58.567,4,60.5l0,0C4,62.433,5.567,64,7.5,64h44c1.933,0,3.5-1.567,3.5-3.5l0,0c0-1.933-1.567-3.5-3.5-3.5l0,0	c-1.381,0-2.5-1.119-2.5-2.5l0,0c0-1.381,1.119-2.5,2.5-2.5H56c2.209,0,4-1.791,4-4l0,0c0-2.209-1.791-4-4-4h-2.5	c-1.933,0-3.5-1.567-3.5-3.5v0c0-1.933,1.567-3.5,3.5-3.5H59c2.761,0,5-2.239,5-5l0,0c0-2.761-2.239-5-5-5H43c-1.657,0-3-1.343-3-3	l0,0c0-1.657,1.343-3,3-3h1.5c1.933,0,3.5-1.567,3.5-3.5l0,0c0-1.933-1.567-3.5-3.5-3.5H42c-1.657,0-3-1.343-3-3l0,0	c0-1.657,1.343-3,3-3h2c2.209,0,4-1.791,4-4l0,0c0-2.209-1.791-4-4-4H13c-2.209,0-4,1.791-4,4l0,0c0,2.209,1.791,4,4,4h8	c2.209,0,4,1.791,4,4l0,0c0,2.209-1.791,4-4,4H10.5C9.119,16,8,17.119,8,18.5v0c0,1.381,1.119,2.5,2.5,2.5h4	c1.381,0,2.5,1.119,2.5,2.5v0C17,24.881,15.881,26,14.5,26z"/><linearGradient id="SGc3VMLWrXclrqp9cj466b" x1=".365" x2="64" y1="32.5" y2="32.5" gradientUnits="userSpaceOnUse"><stop offset=".053" stop-color="#5d6b79"/><stop offset="1" stop-color="#515c69"/></linearGradient><path fill="url(#SGc3VMLWrXclrqp9cj466b)" d="M6.156,29.243l-5.723,9.919c-0.192,0.333,0.048,0.75,0.433,0.75H3.63	c0.356,0,0.686-0.19,0.865-0.498l5.629-9.701L6.156,29.243z M6.299,29.005c0,0,0.815-1.486,1.625-2.92	c0.354-0.628,1.019-1.014,1.74-1.014c1.408,0.001,3.757,0.003,5.086,0.004c0.552,0,0.995,0.448,0.995,1.001v2.61	c0,0,0.323-1.386,0.891-2.043c0.534-0.619,1.246-1.478,2.872-1.592h10.963c0.552,0,1,0.448,1,1v1.955c0,0.552-0.448,1-1,1	L6.299,29.005z M64,28.008V26.05c0-0.552-0.448-1-1-1H51.2c-1.622,0.114-2.337,0.972-2.872,1.592	c-0.569,0.657-0.89,2.043-0.89,2.043v0.318L63,29.008C63.552,29.008,64,28.56,64,28.008z M33.095,25.07h1.578c0.552,0,1,0.448,1,1	v2.935h-3.578V26.07C32.095,25.518,32.543,25.07,33.095,25.07z M44.839,25.07h1.574c0.552,0,1,0.448,1,1v2.935h-3.574V26.07	C43.839,25.518,44.286,25.07,44.839,25.07z M47.413,30.425l-3.514-0.233v4.566c0,0-0.01,1.314-1.158,1.314c-1.138,0-6.039,0-6.039,0	s-1.023-0.093-1.023-1.303c0-1.207,0-5.196,0-5.196l-3.549-0.285v7.001c0.574,3.359,3.311,3.617,3.311,3.617	s0.278,0.022,0.324,0.026h8.156c0,0,3.491-0.311,3.491-4.023C47.413,32.196,47.413,30.425,47.413,30.425z M13.111,39.914h15.73	c2.914-0.647,3.218-3.577,3.218-3.577c0.136-0.871,0.057-1.574,0.057-1.574c-0.088-0.588-1.094-3.178-3.281-3.405	c-1.304-0.134-12.91-1.155-12.91-1.155c0.225,1.288,0.748,1.938,1.094,2.311c0.805,0.857,2.087,1.099,2.087,1.099	c0.309,0.033,8.945,0.824,8.945,0.824c0.274,0.017,0.797,0.093,0.79,0.849c0,0.091-0.075,0.757-0.738,0.757H16.089	c-0.276,0-0.5-0.224-0.5-0.5v-5.373l-3.478-0.281v9.027C12.111,39.466,12.559,39.914,13.111,39.914z M47.444,37.017	c0.001-0.552,0.448-0.998,1-0.998h11.429c0.286,0,0.595-0.187,0.595-0.187c0.13-0.129,0.235-0.364,0.235-0.591	c0-0.753-0.561-0.786-0.843-0.803c0,0-8.732-0.808-9.036-0.834c0,0-1.211-0.207-2.017-1.068c-0.351-0.369-0.815-0.771-1.161-2.099	c0,0,11.671,0.763,12.968,0.897c2.189,0.232,3.215,2.632,3.308,3.43c0,0,0.093,0.722-0.02,1.607c0,0-0.454,3.374-3.664,3.579H48.441	c-0.553,0-1.001-0.449-1-1.002L47.444,37.017z"/><radialGradient id="SGc3VMLWrXclrqp9cj466c" cx="34.625" cy="244.235" r="23.206" gradientTransform="matrix(1 0 0 -1 0 276.11)" gradientUnits="userSpaceOnUse"><stop offset="0" stop-color="#f4e9c3"/><stop offset=".219" stop-color="#f8eecd"/><stop offset=".644" stop-color="#fdf4dc"/><stop offset="1" stop-color="#fff6e1"/></radialGradient><path fill="url(#SGc3VMLWrXclrqp9cj466c)" d="M54,8L54,8c-2.209,0-4-1.791-4-4l0,0c0-2.209,1.791-4,4-4l0,0c2.209,0,4,1.791,4,4l0,0	C58,6.209,56.209,8,54,8z"/></svg>