<svg xmlns="http://www.w3.org/2000/svg"  viewBox="0 0 64 64" width="64px" height="64px"><radialGradient id="LeI3RgA7TXJrO9GR_0PuEa" cx="32" cy="33" r="29.606" gradientUnits="userSpaceOnUse" spreadMethod="reflect"><stop offset="0" stop-color="#c5f1ff"/><stop offset=".35" stop-color="#cdf3ff"/><stop offset=".907" stop-color="#e4faff"/><stop offset="1" stop-color="#e9fbff"/></radialGradient><path fill="url(#LeI3RgA7TXJrO9GR_0PuEa)" d="M10.5,60h41c2.485,0,4.5-2.015,4.5-4.5v0c0-2.485-2.015-4.5-4.5-4.5h-0.393 c-0.996,0-1.92-0.681-2.08-1.664C48.824,48.083,49.785,47,51,47l5.288,0c2.347,0,4.453-1.704,4.689-4.039 C61.247,40.282,59.127,38,56.5,38l-3.393,0c-0.996,0-1.92-0.681-2.08-1.664C50.824,35.083,51.785,34,53,34l5.241,0 c2.868,0,5.442-2.082,5.731-4.936C64.303,25.789,61.711,23,58.5,23l-12.33,0c-1.624,0-3.081-1.216-3.166-2.839 C42.914,18.431,44.29,17,46,17l2.241,0c2.868,0,5.442-2.082,5.731-4.936C54.303,8.789,51.711,6,48.5,6l-38,0C7.462,6,5,8.462,5,11.5 v0c0,3.038,2.462,5.5,5.5,5.5H14c1.105,0,2,0.895,2,2v0c0,1.105-0.895,2-2,2l-9.288,0c-2.347,0-4.453,1.704-4.689,4.038 C-0.248,27.718,1.873,30,4.5,30l8.33,0c1.624,0,3.081,1.216,3.166,2.839C16.086,34.569,14.71,36,13,36H7.712 c-2.347,0-4.453,1.704-4.689,4.038C2.753,42.718,4.873,45,7.5,45h6.393c0.996,0,1.92,0.681,2.08,1.664 C16.176,47.917,15.215,49,14,49l-3.5,0C7.462,49,5,51.462,5,54.5v0C5,57.538,7.462,60,10.5,60z"/><linearGradient id="LeI3RgA7TXJrO9GR_0PuEb" x1="31.504" x2="31.504" y1="67.313" y2="17.319" gradientUnits="userSpaceOnUse" spreadMethod="reflect"><stop offset="0" stop-color="#155cde"/><stop offset=".278" stop-color="#1f7fe5"/><stop offset=".569" stop-color="#279ceb"/><stop offset=".82" stop-color="#2cafef"/><stop offset="1" stop-color="#2eb5f0"/></linearGradient><path fill="url(#LeI3RgA7TXJrO9GR_0PuEb)" d="M52.461,43.685c0.503,0.187,0.671,0.829,0.442,1.315c-0.898,1.904-1.792,3.068-3.102,4.993 c-2.11,3.105-5.1,6.975-8.789,7.002c-3.277,0.027-4.123-2.032-8.577-1.994c-4.449,0.021-5.376,2.032-8.659,1.994 c-3.689-0.027-6.51-3.517-8.626-6.611c-3.552-5.218-5.191-11.053-5.145-15.993c0.031-3.285,0.804-6.13,2.265-8.294 c2.582-3.838,6.673-6.092,10.514-6.092c3.912,0,6.375,1.995,9.603,1.995c3.147,0,5.056-2,9.581-2c3.08,0,6.353,1.939,8.756,4.504 c0.412,0.439,0.359,1.143-0.128,1.496C44.051,30.747,46.401,41.433,52.461,43.685z M39.336,15.073 c1.532-1.857,2.64-4.405,2.664-7.044c0.006-0.637-0.575-1.13-1.196-1.011c-2.574,0.495-5.331,2.059-7.032,4.007 c-1.579,1.821-2.863,4.258-2.767,6.992c0.02,0.581,0.529,1.032,1.103,0.98C34.902,18.74,37.657,17.119,39.336,15.073z"/></svg>