<svg xmlns="http://www.w3.org/2000/svg"  viewBox="0 0 64 64" width="64px" height="64px"><radialGradient id="vwgNEXCdcF4RMV57qdA5qa" cx="32.128" cy="53.406" r="36.865" gradientTransform="matrix(1 0 0 -1 0 84)" gradientUnits="userSpaceOnUse"><stop offset="0" stop-color="#9ceeff"/><stop offset=".642" stop-color="#c5f5ff"/><stop offset="1" stop-color="#dcf9ff"/></radialGradient><path fill="url(#vwgNEXCdcF4RMV57qdA5qa)" d="M59,39h-1.5c-0.8,0-1.5-0.7-1.5-1.5s0.7-1.5,1.5-1.5h1.3c1.9,0,3.7-1.3,4.1-3.2	c0.5-2.6-1.4-4.8-3.9-4.8h-0.5c-0.8,0-1.5-0.7-1.5-1.5l0,0c0-0.8,0.7-1.5,1.5-1.5h0.3c2.5,0,4.8-1.7,5.2-4.2	c0.5-3.1-1.9-5.7-4.8-5.8c-0.9,0-1.8-0.6-2-1.4C56.7,12.2,57.7,11,59,11h0.5c2.1,0,3.8-1.9,3.4-4.2C62.6,5.2,61.1,4,59.3,4	C50.6,4,13.4,4,4.7,4C2.9,4,1.4,5.2,1.1,6.8C0.7,9.1,2.4,11,4.5,11h0.4c0.9,0,1.8,0.6,2,1.5C7.3,13.8,6.3,15,5,15	c-2,0-3.8,1.1-4.6,2.9C-1.1,21.5,1.6,25,5,25h0.5C6.3,25,7,25.7,7,26.5l0,0C7,27.3,6.3,28,5.5,28H5.2c-1.9,0-3.7,1.3-4.1,3.2	C0.6,33.7,2.5,36,5,36h0.5C6.3,36,7,36.7,7,37.5S6.3,39,5.5,39H5.2c-2.5,0-4.8,1.7-5.2,4.2c-0.5,3.1,1.9,5.7,4.8,5.8	c0.9,0,1.8,0.6,2,1.5C7.3,51.8,6.3,53,5,53H4.5c-2.1,0-3.8,1.9-3.4,4.2C1.4,58.8,2.9,60,4.7,60c8.7,0,45.9,0,54.7,0	c1.7,0,3.3-1.2,3.6-2.8c0.4-2.2-1.3-4.2-3.4-4.2h-0.4c-0.9,0-1.8-0.6-2-1.5C56.7,50.2,57.7,49,59,49c2,0,3.8-1.1,4.6-2.9	C65.1,42.5,62.4,39,59,39z"/><linearGradient id="vwgNEXCdcF4RMV57qdA5qb" x1="32.038" x2="31.906" y1="60.73" y2="-32.765" gradientTransform="matrix(1 0 0 -1 0 66)" gradientUnits="userSpaceOnUse"><stop offset="0" stop-color="#fc724e"/><stop offset=".214" stop-color="#fc7366"/><stop offset=".524" stop-color="#fa7381"/><stop offset=".793" stop-color="#f97492"/><stop offset=".989" stop-color="#f97499"/></linearGradient><path fill="url(#vwgNEXCdcF4RMV57qdA5qb)" d="M49.8,55H14.2C11.3,55,9,52.7,9,49.8V14.2C9,11.3,11.3,9,14.2,9h35.6c2.9,0,5.2,2.3,5.2,5.2	v35.6C55,52.7,52.7,55,49.8,55z"/><linearGradient id="vwgNEXCdcF4RMV57qdA5qc" x1="31.705" x2="31.969" y1="59.442" y2="24.761" gradientTransform="matrix(1 0 0 -1 0 66)" gradientUnits="userSpaceOnUse"><stop offset="0" stop-color="#feaa53"/><stop offset=".612" stop-color="#ffcd49"/><stop offset="1" stop-color="#ffde44"/></linearGradient><path fill="url(#vwgNEXCdcF4RMV57qdA5qc)" d="M39.4,19.1c2.8,0,5.1,11.4,5.3,25.8c0,1.2,1,2.1,2.1,2.1l0,0c1.2,0,2.1-1,2.1-2.2	C48.6,29.3,44.5,17,39.4,17c-3,0-5.7,4-7.4,10.3C30.3,21,27.6,17,24.6,17c-5,0-9.2,12.3-9.5,27.8C15,46,16,47,17.2,47l0,0	c1.2,0,2.1-0.9,2.1-2.1c0.2-14.4,2.5-25.8,5.3-25.8s5.1,10.4,5.3,23.6c0,1.2,1,2.1,2.1,2.1l0,0c1.2,0,2.1-0.9,2.1-2.1	C34.4,29.6,36.7,19.1,39.4,19.1"/></svg>