<svg xmlns="http://www.w3.org/2000/svg"  viewBox="0 0 80 80" width="64px" height="64px"><path fill="#f78f8f" stroke="#c74343" stroke-miterlimit="10" d="M62.438,75.471H17.545c-3.866,0-7-3.134-7-7V14.517	c0-1.105,0.895-2,2-2h54.893c1.105,0,2,0.895,2,2v53.954C69.438,72.337,66.304,75.471,62.438,75.471z"/><path fill="#bae0bd" stroke="#5e9c76" stroke-miterlimit="10" d="M55.15,15.658c0,8.367-6.783,15.15-15.15,15.15	s-15.15-6.783-15.15-15.15S31.633,0.508,40,0.508S55.15,7.291,55.15,15.658z M40,4.548c-6.136,0-11.11,4.974-11.11,11.11	s4.974,11.11,11.11,11.11s11.11-4.974,11.11-11.11S46.136,4.548,40,4.548z"/><path fill="#f78f8f" stroke="#c74343" stroke-miterlimit="10" d="M66.478,79.511H13.505c-3.866,0-7-3.134-7-7V18.557	c0-1.105,0.895-2,2-2h62.973c1.105,0,2,0.895,2,2v53.954C73.478,76.377,70.344,79.511,66.478,79.511z"/><path fill="#fff" d="M66.046,51.619c-1.669-2.151-4.765-2.541-6.916-0.873c-0.326,0.253-0.62,0.546-0.873,0.873	c-0.617,0.881-0.941,1.934-0.926,3.01c-0.016,1.076,0.308,2.129,0.926,3.01c1.669,2.151,4.765,2.541,6.916,0.873	c0.326-0.253,0.62-0.546,0.873-0.873c0.617-0.881,0.941-1.934,0.926-3.01C66.987,53.554,66.663,52.5,66.046,51.619z M64.503,55.758	c-0.354,1.057-1.193,1.881-2.355,1.908c-1.163,0.026-2.002-0.85-2.352-1.908c-0.25-0.732-0.25-1.526,0-2.257	c0.354-1.057,1.193-1.881,2.352-1.908c1.159-0.026,2.002,0.85,2.355,1.908c0.249,0.731,0.249,1.523,0,2.254V55.758z M29.042,59.295	c0,0.154-0.125,0.278-0.278,0.278h0h-1.618c-0.154,0-0.278-0.125-0.278-0.278v0v-13.3c0-0.154,0.125-0.278,0.278-0.278l0,0h1.618	c0.154,0,0.278,0.125,0.278,0.278l0,0V59.295z M25.242,59.295c0,0.154-0.125,0.278-0.278,0.278h0h-1.618	c-0.154,0-0.278-0.125-0.278-0.278l0,0v-13.3c0-0.152,0.122-0.276,0.275-0.278h1.618c0.154,0,0.278,0.125,0.278,0.278l0,0v13.3	H25.242z M56.967,50.265v1.129c0.022,0.161-0.091,0.308-0.252,0.33c-0.042,0.006-0.084,0.002-0.124-0.01	c-1.829-0.376-2.954,0.436-2.954,2.126v5.456c0,0.154-0.125,0.278-0.278,0.278h-1.618c-0.154,0-0.278-0.125-0.278-0.278v-5.572	c-0.02-1.066,0.414-2.09,1.193-2.818c0.791-0.773,1.855-1.203,2.961-1.196c0.379,0.001,0.756,0.036,1.129,0.105	c0.192,0.064,0.222,0.177,0.222,0.467V50.265z M50.04,54.626c0.021-1.076-0.304-2.131-0.926-3.01	c-1.669-2.151-4.765-2.541-6.916-0.873c-0.326,0.253-0.62,0.546-0.873,0.873c-1.252,1.811-1.252,4.209,0,6.02	c0.919,1.221,2.366,1.929,3.894,1.908c0.987,0.003,1.952-0.288,2.773-0.835v1.189c0,1.614-1.411,1.908-2.314,1.964	c-0.621,0.021-1.243-0.013-1.859-0.102c-0.248-0.038-0.421,0-0.421,0.267v1.43c0.006,0.135,0.12,0.239,0.255,0.233c0,0,0,0,0.001,0	c2.096,0.181,3.507,0.143,4.568-0.463c0.743-0.44,1.295-1.142,1.546-1.968c0.188-0.637,0.278-1.3,0.267-1.964v-4.669H50.04z M45.22,57.658c-1.163,0-2.002-0.85-2.355-1.908c-0.25-0.732-0.25-1.526,0-2.257c0.354-1.057,1.193-1.908,2.355-1.908	c2.6,0,2.686,2.653,2.686,3.036S47.82,57.658,45.22,57.658z M21.584,53.651c0-1.283-0.286-2.257-0.903-2.931	s-1.859-1.008-3.01-1.008c-1.156-0.005-2.292,0.298-3.292,0.877c-0.064,0.038-0.102,0.107-0.102,0.181l0.087,1.415	c0.024,0.137,0.155,0.229,0.292,0.205c0.045-0.008,0.088-0.028,0.122-0.058c1.411-0.869,3.104-1.031,3.966-0.594	c0.483,0.278,0.773,0.801,0.752,1.358v0.207h-2.352c-1.012,0-4.112,0.376-4.112,3.224v0.03c-0.049,0.879,0.324,1.729,1.005,2.288	c0.733,0.516,1.618,0.769,2.513,0.719h4.76c0.154,0,0.278-0.125,0.278-0.278l0,0V53.64L21.584,53.651z M19.496,57.824h-2.811	c-0.361-0.01-0.709-0.133-0.997-0.35c-0.301-0.211-0.477-0.558-0.47-0.926c0-0.508,0.342-1.524,2.054-1.524h2.224V57.824z M34.998,49.712c-2.878,0-4.139,1.93-4.541,3.563c-0.111,0.44-0.166,0.893-0.166,1.347c-0.016,1.076,0.308,2.129,0.926,3.01	c0.935,1.202,2.371,1.906,3.894,1.908c1.554,0.056,2.592-0.207,3.386-0.658c0.159-0.102,0.234-0.295,0.188-0.478V57.15	c0-0.256-0.154-0.376-0.376-0.222c-0.929,0.596-2.032,0.861-3.13,0.752c-1.294-0.017-2.373-0.997-2.513-2.284h6.396	c0.144,0,0.261-0.116,0.263-0.26C39.437,53.388,38.93,49.712,34.998,49.712z M32.699,53.666c0.054-1.2,1.07-2.129,2.27-2.075	c0.011,0,0.022,0.001,0.032,0.002c1.066-0.065,1.983,0.746,2.048,1.812c0.005,0.087,0.005,0.174-0.002,0.261H32.699z"/></svg>