<svg xmlns="http://www.w3.org/2000/svg"  viewBox="0 0 64 64" width="64px" height="64px" baseProfile="basic"><radialGradient id="nZoP9knmTouVpTu4TYsW4a" cx="32.5" cy="32.5" r="30.516" gradientTransform="matrix(1 0 0 -1 0 64)" gradientUnits="userSpaceOnUse"><stop offset="0" stop-color="#afeeff"/><stop offset=".193" stop-color="#bbf1ff"/><stop offset=".703" stop-color="#d7f8ff"/><stop offset="1" stop-color="#e1faff"/></radialGradient><path fill="url(#nZoP9knmTouVpTu4TYsW4a)" d="M59,20h1.5c2.168,0,3.892-1.998,3.422-4.243C63.58,14.122,62.056,13,60.385,13H53	c-1.105,0-2-0.895-2-2s0.895-2,2-2h3.385c1.67,0,3.195-1.122,3.537-2.757C60.392,3.998,58.668,2,56.5,2H34.006H32.5h-24	C6.575,2,5,3.575,5,5.5S6.575,9,8.5,9H10c1.105,0,2,0.895,2,2s-0.895,2-2,2H4.615c-1.67,0-3.195,1.122-3.537,2.757	C0.608,18.002,2.332,20,4.5,20H18v12H4.615c-1.67,0-3.195,1.122-3.537,2.757C0.608,37.002,2.332,39,4.5,39H5c1.105,0,2,0.895,2,2	s-0.895,2-2,2H4.5c-2.168,0-3.892,1.998-3.422,4.243C1.42,48.878,2.945,50,4.615,50H10c1.105,0,2,0.895,2,2s-0.895,2-2,2H8.615	c-1.67,0-3.195,1.122-3.537,2.757C4.608,59.002,6.332,61,8.5,61h22.494H32.5h23c1.925,0,3.5-1.575,3.5-3.5S57.425,54,55.5,54H55	c-1.105,0-2-0.895-2-2s0.895-2,2-2h4.385c1.67,0,3.195-1.122,3.537-2.757C63.392,44.998,61.668,43,59.5,43H47V31h12.385	c1.67,0,3.195-1.122,3.537-2.757C63.392,25.998,61.668,24,59.5,24H59c-1.105,0-2-0.895-2-2S57.895,20,59,20z"/><path fill="#fff" d="M57,31c0,13.805-11.195,25-25,25S7,44.805,7,31S18.195,6,32,6S57,17.195,57,31z"/><linearGradient id="nZoP9knmTouVpTu4TYsW4b" x1="32" x2="32" y1="54.606" y2="22.482" gradientUnits="userSpaceOnUse"><stop offset="0" stop-color="#155cde"/><stop offset=".278" stop-color="#1f7fe5"/><stop offset=".569" stop-color="#279ceb"/><stop offset=".82" stop-color="#2cafef"/><stop offset="1" stop-color="#2eb5f0"/></linearGradient><path fill="url(#nZoP9knmTouVpTu4TYsW4b)" d="M32,55.997c-0.249,0-0.815,0.007-1.063,0	l5-13.749h7.031c1.234,0,2.589-0.949,3.011-2.108l5.935-15.859c0.906-2.494-0.521-4.533-3.174-4.533h-9.755L30.839,42.57h-0.003	l-4.64,12.748C15.188,52.702,7,42.807,7,30.999C7,19.531,14.723,9.868,25.25,6.923L20.463,20.08h-0.001l-8.274,22.168h5.299	l6.97-18.749h3.981l-6.97,18.749l4.899,0.001l6.798-17.968c0.908-2.494-0.52-4.533-3.17-4.533h-4.056l4.939-13.723	C31.249,6.01,31.624,6,32,6c13.808,0,25,11.191,25,24.999S45.808,55.997,32,55.997z M47.188,23.499h-3.981L37.57,38.498h3.981	L47.188,23.499z"/></svg>