<svg xmlns="http://www.w3.org/2000/svg"  viewBox="0 0 64 64" width="64px" height="64px"><radialGradient id="MUr5nuj1f7d90_qpxatRza" cx="32" cy="622" r="31.504" gradientTransform="matrix(1 0 0 -1 0 654)" gradientUnits="userSpaceOnUse"><stop offset="0" stop-color="#afeeff"/><stop offset=".193" stop-color="#bbf1ff"/><stop offset=".703" stop-color="#d7f8ff"/><stop offset="1" stop-color="#e1faff"/></radialGradient><path fill="url(#MUr5nuj1f7d90_qpxatRza)" d="M60.719,34H52c-1.1,0-2-0.9-2-2c0-1.1,0.9-2,2-2h7.385c1.67,0,3.195-1.122,3.537-2.757	C63.392,24.998,61.668,23,59.5,23H59c-1.105,0-2-0.895-2-2s0.895-2,2-2h1.5c2.168,0,3.892-1.998,3.422-4.243	C63.58,13.122,62.056,12,60.385,12H54c-1.105,0-2-0.895-2-2s0.895-2,2-2h1.385c1.67,0,3.195-1.122,3.537-2.757	C59.392,2.998,57.668,1,55.5,1H34.006H32.5h-25C5.575,1,4,2.575,4,4.5S5.575,8,7.5,8H9c1.105,0,2,0.895,2,2s-0.895,2-2,2H3.615	c-1.67,0-3.195,1.122-3.537,2.757C-0.392,17.002,1.332,19,3.5,19H14c1.1,0,2,0.9,2,2s-0.9,2-2,2H3.5C1.575,23,0,24.575,0,26.5	S1.575,30,3.5,30H6c1.1,0,2,0.9,2,2c0,1.1-0.9,2-2,2H4.614c-1.67,0-3.195,1.122-3.537,2.757C0.608,39.002,2.332,41,4.5,41H7	c1.105,0,2,0.895,2,2s-0.895,2-2,2H4.5c-2.168,0-3.892,1.998-3.422,4.243C1.42,50.878,2.945,52,4.615,52H19c1.105,0,2,0.895,2,2	s-0.895,2-2,2H8.615c-1.67,0-3.195,1.122-3.537,2.757C4.608,61.002,6.332,63,8.5,63h22.494H32.5h21c1.925,0,3.5-1.575,3.5-3.5	S55.425,56,53.5,56H52c-1.105,0-2-0.895-2-2s0.895-2,2-2h5.385c1.67,0,3.195-1.122,3.537-2.757C61.392,46.998,59.668,45,57.5,45H57	c-1.1,0-2-0.9-2-2s0.9-2,2-2h3.719C62.524,41,64,39.523,64,37.719v-0.438C64,35.476,62.524,34,60.719,34z"/><linearGradient id="MUr5nuj1f7d90_qpxatRzb" x1="32" x2="32" y1="55.511" y2="23.156" gradientUnits="userSpaceOnUse"><stop offset="0" stop-color="#ff9757"/><stop offset="1" stop-color="#ffb65b"/><stop offset="1" stop-color="#ffb65b"/></linearGradient><path fill="url(#MUr5nuj1f7d90_qpxatRzb)" d="M52.594,18.03H42.298C42.013,11.949,37.51,7.096,32,7.096S21.987,11.949,21.702,18.03H11.406	c-0.694,0-1.246,0.579-1.214,1.272l1.545,32.97c0.122,2.592,2.26,4.632,4.854,4.632h30.815c2.595,0,4.733-2.04,4.854-4.632	l1.545-32.97C53.84,18.609,53.287,18.03,52.594,18.03z M32,9.526c4.176,0,7.597,3.763,7.87,8.504H24.13	C24.403,13.289,27.824,9.526,32,9.526z"/><path fill="#fafafa" d="M32.301,35.873c-3.33-1.217-5.351-2.117-5.351-4.345c0-2.249,2.158-3.881,5.131-3.881	c2.047,0,3.838,0.802,4.723,1.278c0.151,0.081,0.576,0.337,0.816,0.498l0.158,0.106l1.164-1.893l-0.191-0.125	c-0.938-0.633-3.467-2.105-6.669-2.105c-4.202,0-7.37,2.631-7.37,6.121c0,3.957,3.624,5.281,6.821,6.449	c3.729,1.363,5.994,2.399,5.994,5.283c0,2.221-2.511,4.026-5.599,4.026c-3.479,0-6.47-2.557-6.498-2.581l-0.155-0.143l-1.271,1.873	l0.129,0.106c0.865,0.701,3.98,2.986,7.794,2.986c4.396,0,7.84-2.753,7.84-6.266C39.766,38.6,35.8,37.152,32.301,35.873z"/><linearGradient id="MUr5nuj1f7d90_qpxatRzc" x1="45.424" x2="45.424" y1="59.17" y2="42.043" gradientUnits="userSpaceOnUse"><stop offset="0" stop-color="#ff8b67"/><stop offset=".847" stop-color="#ffa76a"/><stop offset="1" stop-color="#ffad6b"/><stop offset="1" stop-color="#ffad6b"/></linearGradient><path fill="url(#MUr5nuj1f7d90_qpxatRzc)" d="M47.128,39.774c-1.451,0-2.786,0.972-3.068,2.395c-0.379,1.912,1.092,3.605,2.94,3.605h0.5	c1.381,0,2.5,1.119,2.5,2.5s-1.119,2.5-2.5,2.5h-6.369c-1.451,0-2.789,0.972-3.071,2.395c-0.379,1.912,1.092,3.605,2.94,3.605h7.479	c2.087-0.472,3.678-2.279,3.782-4.502l0.586-12.498H47.128z"/><linearGradient id="MUr5nuj1f7d90_qpxatRzd" x1="20.202" x2="20.202" y1="45.468" y2="18.391" gradientUnits="userSpaceOnUse"><stop offset="0" stop-color="#f9af70"/><stop offset="1" stop-color="#ffb37b"/></linearGradient><path fill="url(#MUr5nuj1f7d90_qpxatRzd)" d="M17.173,35.034c0.014,0,0.026-0.004,0.04-0.004h2c1.657,0,3-1.343,3-3c0-1.657-1.343-3-3-3h-1	c-1.657,0-3-1.343-3-3c0-1.657,1.343-3,3-3h9.5c1.381,0,2.5-1.119,2.5-2.5c0-1.381-1.119-2.5-2.5-2.5H11.406	c-0.694,0-1.246,0.579-1.214,1.272l0.737,15.732H17.173z"/></svg>