<svg xmlns="http://www.w3.org/2000/svg"  viewBox="0 0 80 80" width="64px" height="64px"><path fill="#dbf2ff" d="M40,5.5C20.946,5.5,5.5,20.946,5.5,40S20.946,74.5,40,74.5S74.5,59.054,74.5,40S59.054,5.5,40,5.5z M40,66.5c-14.636,0-26.5-11.864-26.5-26.5S25.364,13.5,40,13.5S66.5,25.364,66.5,40S54.636,66.5,40,66.5z"/><path fill="#b5ddf5" d="M40,70.5C23.155,70.5,9.5,56.845,9.5,40h-4c0,19.054,15.446,34.5,34.5,34.5S74.5,59.054,74.5,40h-4	C70.5,56.845,56.845,70.5,40,70.5z"/><path fill="#b5ddf5" d="M40,13.5c14.636,0,26.5,11.864,26.5,26.5h4C70.5,23.155,56.845,9.5,40,9.5S9.5,23.155,9.5,40h4	C13.5,25.364,25.364,13.5,40,13.5z"/><path fill="#7496c4" d="M40,75C20.701,75,5,59.299,5,40S20.701,5,40,5s35,15.701,35,35S59.299,75,40,75z M40,6	C21.252,6,6,21.252,6,40c0,18.748,15.252,34,34,34c18.748,0,34-15.252,34-34C74,21.252,58.748,6,40,6z M40,67	c-14.888,0-27-12.112-27-27s12.112-27,27-27s27,12.112,27,27S54.888,67,40,67z M40,14c-14.336,0-26,11.664-26,26	c0,14.337,11.664,26,26,26c14.337,0,26-11.663,26-26C66,25.664,54.337,14,40,14z"/><path fill="#dbf2ff" d="M0.506,31.822v1.022v14.312v1.022c26.274,4.268,52.604,4.251,78.987,0v-1.022V32.844v-1.022	C53.219,27.553,26.89,27.571,0.506,31.822z"/><path fill="#b5ddf5" d="M73.924,41.034H6.076c-2.349,0-4.405-1.26-5.57-3.15v9.273v1.022c26.274,4.268,52.604,4.251,78.987,0	v-1.022v-9.273C78.329,39.774,76.273,41.034,73.924,41.034z"/><path fill="#7496c4" d="M39.919,51.875c-13.223,0-26.415-1.061-39.493-3.186L0,48.62V31.38l0.427-0.069	c26.368-4.248,52.995-4.248,79.146,0L80,31.38v17.24l-0.427,0.069C66.391,50.813,53.14,51.875,39.919,51.875z M1.013,47.737	c25.768,4.138,51.997,4.138,77.975-0.001V32.263c-25.767-4.14-51.996-4.14-77.975,0.001V47.737z"/><path fill="#66798f" d="M31.864,39.158c1.549,0.174,2.621,0.294,2.93,1.961c0,0.131,0.039,0.416,0.039,0.899 c0,0.307,0,0.795,0,1.312c0,1.521-1.141,1.624-2.766,1.624H25.31c-0.233,0-0.27-0.043-0.27-0.307v-1.032 c0-0.264,0.039-0.307,0.27-0.307h7.524c0.27,0,0.349-0.088,0.387-0.307v-1.21v-0.397c-0.039-0.176-0.077-0.44-0.426-0.481 c-0.736-0.043-3.876-0.45-5.348-0.624c-1.898-0.219-2.332-0.821-2.409-1.611C25,38.415,25,38.065,25,37.758 c0-0.264-0.005-0.617,0.034-0.926c0-1.521,0.936-1.832,2.562-1.832h6.928c0.233,0,0.311,0.045,0.311,0.264v1.127 c0,0.219-0.077,0.307-0.311,0.262h-7.449c-0.27,0-0.387,0.131-0.426,0.438v0.329v0.715c0,0.219,0.116,0.395,0.387,0.438 C27.772,38.662,31.013,39.07,31.864,39.158z"/><path fill="#66798f" d="M43.903,39.158c1.557,0.174,2.635,0.294,2.947,1.961c0,0.131,0.04,0.416,0.04,0.899 c0,0.307,0,0.795,0,1.312c0,1.521-1.147,1.624-2.782,1.624h-6.795c-0.234,0-0.272-0.043-0.272-0.307v-1.032 c0-0.264,0.04-0.307,0.272-0.307h7.567c0.272,0,0.351-0.088,0.389-0.307v-1.21v-0.397c-0.04-0.176-0.077-0.44-0.429-0.481 c-0.74-0.043-3.898-0.45-5.378-0.624c-1.909-0.219-2.345-0.821-2.423-1.611C37,38.415,37,38.065,37,37.758 c0-0.264-0.005-0.617,0.035-0.926c0-1.521,0.941-1.832,2.576-1.832h6.967c0.234,0,0.313,0.045,0.313,0.264v1.127 c0,0.219-0.077,0.307-0.313,0.262h-7.491c-0.272,0-0.389,0.131-0.429,0.438v0.329v0.715c0,0.219,0.117,0.395,0.389,0.438 C39.787,38.662,43.047,39.07,43.903,39.158z"/><path fill="#66798f" d="M18.748,35C18.963,35,19,35.088,19,35.307v9.383c0,0.264-0.037,0.307-0.252,0.307h-1.102 c-0.275,0-1.182,0.027-1.833-0.876c-1.5-2.172-5.147-7.421-5.147-7.421v7.992c0,0.264-0.037,0.307-0.252,0.307H9.252 C9.037,44.997,9,44.954,9,44.691v-9.383C9,35.088,9.037,35,9.252,35h0.722c0.942,0,1.627,0.04,2.087,0.835 c0.462,0.767,5.24,7.443,5.24,7.443v-7.969c0-0.219,0.037-0.307,0.252-0.307h1.197V35z"/><path fill="#66798f" d="M70.748,35C70.963,35,71,35.088,71,35.307v9.383c0,0.264-0.037,0.307-0.252,0.307h-1.102 c-0.275,0-1.182,0.027-1.833-0.876c-1.5-2.172-5.147-7.421-5.147-7.421v7.992c0,0.264-0.037,0.307-0.252,0.307h-1.163 c-0.215,0-0.252-0.043-0.252-0.307v-9.383C61,35.088,61.037,35,61.252,35h0.722c0.942,0,1.627,0.04,2.087,0.835 c0.462,0.767,5.24,7.443,5.24,7.443v-7.969c0-0.219,0.037-0.307,0.252-0.307h1.197V35z"/><path fill="#66798f" d="M22.621,35.045c0.131,0,0.157,0.086,0.157,0.262v9.386c0,0.219-0.026,0.307-0.183,0.307h-1.357 c-0.157,0-0.183-0.045-0.183-0.309v-9.386c0-0.176,0.026-0.262,0.131-0.262h1.435V35.045z"/><path fill="#66798f" d="M58.862,44.516c-0.906-2.543-2.921-8.462-2.921-8.462C55.538,34.957,55.338,35,54.565,35 c-0.265,0-0.517,0-0.787,0c-0.27,0-0.522,0-0.787,0c-0.753,0-0.973-0.043-1.376,1.054c0,0-2.015,5.918-2.921,8.462 c-0.169,0.438-0.067,0.438,0.201,0.438h1.347c0.134,0,0.201-0.086,0.234-0.174c0,0,0.224-0.611,0.541-1.482h5.523 c0.319,0.871,0.541,1.482,0.541,1.482c0.033,0.088,0.1,0.174,0.234,0.174h1.347C58.929,44.954,59.031,44.954,58.862,44.516z M51.622,41.637c0.806-2.21,1.739-4.777,1.739-4.802c0.033-0.088,0.102-0.131,0.201-0.131c0.031-0.041,0.122-0.043,0.215-0.045 c0.093,0,0.184,0.002,0.217,0.043c0.102,0,0.169,0.043,0.201,0.131c0,0.025,0.933,2.593,1.739,4.802h-4.314V41.637z"/></svg>